<svg xmlns="http://www.w3.org/2000/svg" viewBox="0 0 192 192" width="192" height="192">
  <rect width="192" height="192" rx="40" fill="#0f0f0d"/>
  <rect x="16" y="16" width="160" height="160" rx="28" fill="#1a1a16"/>
  <!-- 皿のシルエット -->
  <ellipse cx="96" cy="106" rx="52" ry="52" fill="none" stroke="#c8f55a" stroke-width="5"/>
  <ellipse cx="96" cy="106" rx="36" ry="36" fill="none" stroke="#c8f55a" stroke-width="2.5" opacity="0.4"/>
  <!-- フォーク -->
  <line x1="96" y1="44" x2="96" y2="68" stroke="#c8f55a" stroke-width="4.5" stroke-linecap="round"/>
  <!-- 炎アイコン風 -->
  <path d="M86 98 Q88 88 96 84 Q94 92 100 90 Q106 82 102 72 Q114 82 112 96 Q116 90 114 98 Q116 110 106 116 Q110 108 106 104 Q104 112 96 116 Q88 112 86 104 Q82 110 84 98 Q82 88 86 98Z" fill="#c8f55a" opacity="0.9"/>
</svg>
